<svg width="12" height="11" viewBox="0 0 12 11" fill="none" xmlns="http://www.w3.org/2000/svg">
<path d="M0.888479 6.45953L0.888484 6.45954L3.98244 10.0727L3.98246 10.0728C4.0873 10.1952 4.24133 10.2474 4.37612 10.2499C4.51197 10.2524 4.67801 10.2044 4.78655 10.0612C4.78655 10.0612 4.78655 10.0612 4.78656 10.0612L10.3353 2.7413L10.1361 2.59028L10.3354 2.7413L11.1304 1.69253L10.9311 1.5415C11.1639 1.23447 10.7513 0.795952 10.5162 1.10612L10.3169 0.955091L10.3169 0.955095L4.76814 8.27496L4.96737 8.42599L4.76814 8.27496L4.35534 8.8195L1.68326 5.69895C1.68326 5.69895 1.68326 5.69894 1.68325 5.69894C1.57414 5.57151 1.4277 5.50518 1.27226 5.51398C1.12602 5.52225 1.0017 5.59507 0.915362 5.68589C0.745316 5.86477 0.660039 6.19274 0.888479 6.45953Z" fill="#003FA9" stroke="#003FA9" stroke-width="0.5"/>
</svg>
